<svg xmlns="http://www.w3.org/2000/svg" viewBox="0 0 24 24" width="100%" height="100%" focusable="false"><path d="M12 3a9 9 0 109 9 9 9 0 00-9-9zm7.41 6H15.8a14.34 14.34 0 00-1.34-4.61A8 8 0 0119.41 9zM15 12c0 .7 0 1.37-.09 2H9.09C9 13.37 9 12.7 9 12s0-1.37.09-2h5.82c.09.63.09 1.3.09 2zm-3 8a8 8 0 01-1.11-.09A11.14 11.14 0 019.21 15h5.58a11.14 11.14 0 01-1.68 4.91A8 8 0 0112 20zM9.21 9a11.14 11.14 0 011.68-4.91A8 8 0 0112 4a8 8 0 011.11.09A11.14 11.14 0 0114.79 9zm.34-4.61A14.08 14.08 0 008.2 9H4.59a8 8 0 014.96-4.61zM4.26 10H8.1c-.1.65-.1 1.31-.1 2s0 1.35.1 2H4.26a7.82 7.82 0 010-4zm.33 5H8.2a14.08 14.08 0 001.35 4.61A8 8 0 014.59 15zm9.87 4.61A14.34 14.34 0 0015.8 15h3.61a8 8 0 01-4.95 4.61zM19.74 14H15.9c.06-.65.1-1.31.1-2s0-1.35-.1-2h3.84a7.82 7.82 0 010 4z"/></svg>