<?xml version="1.0" encoding="UTF-8"?>
<svg id="lay" xmlns="http://www.w3.org/2000/svg" viewBox="0 0 127.56 25.23">
  <defs>
    <style>
      .cls-1 {
        fill: #d5001c;
      }
    </style>
  </defs>
  <rect class="cls-1" y="11.18" width="127.56" height="2.27"/>
  <g>
    <path d="m0,25.11l.32-7.12h1.61l1.51,4.74,1.44-4.74h1.62l.36,7.12h-1.32l-.22-4.69-1.47,4.69h-.93l-1.49-4.69-.2,4.69H0Z"/>
    <path d="m10.81,25.23c-.55,0-1.01-.06-1.36-.19-.36-.12-.64-.33-.84-.61s-.34-.67-.43-1.14c-.08-.47-.12-1.06-.12-1.76s.04-1.33.14-1.8c.09-.47.24-.85.45-1.12.21-.27.49-.47.84-.57.35-.11.79-.17,1.32-.17s.97.05,1.32.17c.35.11.64.3.84.57.21.27.36.65.45,1.12.09.47.14,1.07.14,1.8s-.04,1.29-.12,1.76c-.08.47-.22.85-.43,1.14s-.48.49-.84.61c-.36.12-.81.19-1.36.19Zm0-1.1c.29,0,.52-.03.69-.08.17-.05.31-.17.4-.35.09-.18.16-.44.19-.79s.04-.81.04-1.4c0-.51-.01-.93-.04-1.24s-.09-.56-.19-.73c-.09-.17-.23-.28-.4-.34-.17-.06-.4-.08-.69-.08s-.52.03-.69.08-.31.17-.4.34c-.09.17-.16.41-.19.73s-.04.73-.04,1.24c0,.59.01,1.05.04,1.4s.09.61.19.79c.09.18.23.3.4.35.17.05.4.08.69.08Z"/>
    <path d="m14.4,17.99h4.99v1.24h-1.81v5.88h-1.36v-5.88h-1.82v-1.24Z"/>
    <path d="m22.98,25.23c-.55,0-1.01-.06-1.36-.19-.36-.12-.64-.33-.84-.61s-.34-.67-.43-1.14c-.08-.47-.12-1.06-.12-1.76s.04-1.33.14-1.8c.09-.47.24-.85.45-1.12.21-.27.49-.47.84-.57.35-.11.79-.17,1.32-.17s.97.05,1.32.17c.35.11.64.3.84.57.21.27.36.65.45,1.12.09.47.14,1.07.14,1.8s-.04,1.29-.12,1.76c-.08.47-.22.85-.43,1.14s-.48.49-.84.61c-.36.12-.81.19-1.36.19Zm0-1.1c.29,0,.52-.03.69-.08.17-.05.31-.17.4-.35.09-.18.16-.44.19-.79s.04-.81.04-1.4c0-.51-.01-.93-.04-1.24s-.09-.56-.19-.73c-.09-.17-.23-.28-.4-.34-.17-.06-.4-.08-.69-.08s-.52.03-.69.08-.31.17-.4.34c-.09.17-.16.41-.19.73s-.04.73-.04,1.24c0,.59.01,1.05.04,1.4s.09.61.19.79c.09.18.23.3.4.35.17.05.4.08.69.08Z"/>
    <path d="m27.1,17.99h2.57c.37,0,.7.04.97.11.27.07.5.2.68.38.18.18.31.41.4.71s.13.66.13,1.1c0,.66-.1,1.16-.3,1.49s-.5.54-.9.64l1.41,2.71h-1.51l-1.22-2.47h-.85v2.47h-1.37v-7.12Zm1.37,1.24v2.25h1.02c.17,0,.32-.01.44-.03.12-.02.22-.07.29-.15.07-.08.13-.2.16-.35s.05-.36.05-.62c0-.24-.02-.43-.05-.57s-.09-.26-.16-.33c-.08-.08-.18-.13-.3-.16-.12-.02-.28-.03-.47-.03h-.98Z"/>
    <path d="m34.34,22.92c.01.23.04.43.08.58.04.15.1.28.18.37.08.09.19.16.32.2s.31.06.52.06c.39,0,.66-.07.81-.2.15-.13.23-.37.23-.71,0-.14-.02-.26-.05-.36-.04-.1-.1-.19-.18-.25-.08-.07-.19-.13-.31-.19-.13-.05-.29-.1-.48-.15l-.55-.14c-.31-.08-.57-.17-.8-.28-.23-.11-.42-.24-.58-.41-.16-.17-.27-.37-.35-.61s-.12-.53-.12-.87.04-.62.12-.88c.08-.26.22-.48.4-.66.18-.18.43-.32.73-.41.3-.09.67-.14,1.1-.14.46,0,.84.05,1.15.14.3.09.54.24.73.43.18.19.31.44.39.73.08.3.12.65.14,1.06h-1.33c-.01-.23-.04-.42-.07-.57-.04-.15-.09-.26-.18-.34s-.18-.14-.31-.17-.29-.04-.48-.04c-.34,0-.59.06-.75.19s-.24.34-.24.65c0,.16.02.29.05.4s.1.19.18.26c.08.07.19.14.32.19.13.05.3.1.49.15l.55.14c.61.15,1.07.39,1.38.71.31.32.46.79.46,1.4,0,.33-.04.63-.13.88-.09.25-.23.47-.42.64-.19.17-.45.3-.76.4-.31.09-.69.14-1.14.14s-.81-.04-1.11-.12c-.3-.08-.55-.22-.74-.4s-.33-.42-.42-.72c-.09-.29-.15-.65-.17-1.07h1.35Z"/>
    <path d="m39.18,17.99h2.62c.37,0,.69.04.96.12s.49.21.66.39c.17.18.3.42.38.71s.12.65.12,1.07c0,.46-.04.84-.12,1.15-.08.3-.21.55-.39.73-.17.18-.4.31-.67.38-.27.07-.59.11-.97.11h-1.23v2.47h-1.37v-7.12Zm1.37,1.24v2.25h1.04c.19,0,.34-.01.46-.04.12-.03.21-.08.28-.17.07-.08.12-.2.15-.35.03-.15.04-.35.04-.59,0-.23-.01-.41-.04-.55s-.08-.26-.15-.33c-.07-.08-.16-.14-.28-.17-.12-.03-.27-.04-.45-.04h-1.04Z"/>
    <path d="m47.78,25.23c-.55,0-1.01-.06-1.36-.19-.36-.12-.64-.33-.84-.61s-.34-.67-.43-1.14c-.08-.47-.12-1.06-.12-1.76s.04-1.33.14-1.8c.09-.47.24-.85.45-1.12.21-.27.49-.47.84-.57.35-.11.79-.17,1.32-.17s.97.05,1.32.17c.35.11.64.3.84.57.21.27.36.65.45,1.12.09.47.14,1.07.14,1.8s-.04,1.29-.12,1.76c-.08.47-.22.85-.43,1.14s-.48.49-.84.61c-.36.12-.81.19-1.36.19Zm0-1.1c.29,0,.52-.03.69-.08.17-.05.31-.17.4-.35.09-.18.16-.44.19-.79s.04-.81.04-1.4c0-.51-.01-.93-.04-1.24s-.09-.56-.19-.73c-.09-.17-.23-.28-.4-.34-.17-.06-.4-.08-.69-.08s-.52.03-.69.08-.31.17-.4.34c-.09.17-.16.41-.19.73s-.04.73-.04,1.24c0,.59.01,1.05.04,1.4s.09.61.19.79c.09.18.23.3.4.35.17.05.4.08.69.08Z"/>
    <path d="m51.9,17.99h2.57c.37,0,.7.04.97.11.27.07.5.2.68.38.18.18.31.41.4.71s.13.66.13,1.1c0,.66-.1,1.16-.3,1.49s-.5.54-.9.64l1.41,2.71h-1.51l-1.22-2.47h-.85v2.47h-1.37v-7.12Zm1.37,1.24v2.25h1.02c.17,0,.32-.01.44-.03.12-.02.22-.07.29-.15.07-.08.13-.2.16-.35s.05-.36.05-.62c0-.24-.02-.43-.05-.57s-.09-.26-.16-.33c-.08-.08-.18-.13-.3-.16-.12-.02-.28-.03-.47-.03h-.98Z"/>
    <path d="m57.53,17.99h4.99v1.24h-1.81v5.88h-1.36v-5.88h-1.82v-1.24Z"/>
  </g>
  <path d="m13.01,5.73c1.25,0,1.92-.67,1.92-1.92v-1.89c0-1.25-.67-1.92-1.92-1.92H0v7.78h1.76v-2.05h11.25Zm.16-3.71v1.68c0,.2-.11.31-.31.31H1.76V1.71h11.09c.2,0,.31.11.31.31Zm5.91,5.75c-1.25,0-1.92-.67-1.92-1.92V1.92c0-1.25.67-1.92,1.92-1.92h10.81c1.25,0,1.92.67,1.92,1.92v3.94c0,1.25-.67,1.92-1.92,1.92h-10.81Zm10.65-1.71c.2,0,.31-.11.31-.31v-3.73c0-.2-.11-.31-.31-.31h-10.5c-.2,0-.31.11-.31.31v3.73c0,.2.11.31.31.31h10.5Zm17.5-.93c1.03.43,1.76,1.45,1.76,2.64h-1.76c0-1.4-.65-2.05-2.05-2.05h-9.36v2.05h-1.76V0h13.01c1.25,0,1.92.67,1.92,1.92v1.3c0,1.19-.62,1.86-1.76,1.91Zm-.31-1.11c.2,0,.31-.11.31-.31v-1.68c0-.2-.11-.31-.31-.31h-11.09v2.31h11.09Zm4.2-2.1c0-1.25.67-1.92,1.92-1.92h12.75v1.45h-12.6c-.2,0-.31.11-.31.31v1.09c0,.2.11.31.31.31h10.94c1.25,0,1.92.67,1.92,1.92v.78c0,1.25-.67,1.92-1.92,1.92h-12.75v-1.45h12.6c.2,0,.31-.11.31-.31v-1.09c0-.2-.11-.31-.31-.31h-10.94c-1.25,0-1.92-.67-1.92-1.92v-.78Zm17.13,0c0-1.25.67-1.92,1.92-1.92h12.44v1.71h-12.29c-.2,0-.31.11-.31.31v3.73c0,.2.11.31.31.31h12.29v1.71h-12.44c-1.25,0-1.92-.67-1.92-1.92V1.92Zm30.69-1.92v7.78h-1.76v-3.03h-10.55v3.03h-1.76V0h1.76v3.03h10.55V0h1.76Zm4.04,1.45v1.71h13.66v1.45h-13.66v1.71h13.66v1.45h-15.42V0h15.42v1.45h-13.66Z"/>
</svg>